<svg xmlns="http://www.w3.org/2000/svg" xmlns:xlink="http://www.w3.org/1999/xlink" xmlns:inkscape="http://www.inkscape.org/namespaces/inkscape" version="1.1" width="457" height="287" viewBox="0 0 457 287">
<defs>
<clipPath id="clip_1">
<path transform="matrix(1,0,0,-1,0,287)" d="M0 287H457V0H0Z"/>
</clipPath>
</defs>
<g inkscape:groupmode="layer" inkscape:label="Capa 1">
<g clip-path="url(#clip_1)">
<path transform="matrix(1,0,0,-1,354.8533,56.515)" d="M0 0C32.446-5.694 47.583-67.071 4.92-47.081-6.658-41.596-9.74 1.71 0 0" fill="#ffffff" fill-rule="evenodd"/>
<path transform="matrix(1,0,0,-1,354.8533,56.515)" stroke-width="1" stroke-linecap="butt" stroke-miterlimit="10" stroke-linejoin="miter" fill="none" stroke="#ffffff" d="M0 0C32.446-5.694 47.583-67.071 4.92-47.081-6.658-41.596-9.74 1.71 0 0Z"/>
<path transform="matrix(1,0,0,-1,339.226,37.9619)" d="M0 0C-3.435-5.967-14.223-5.967-17.658 0-21.097 5.963-11.164 15.27-8.829 15.286-5.807 15.314 3.447 5.963 0 0" fill="#ffffff"/>
<path transform="matrix(1,0,0,-1,339.226,37.9619)" stroke-width="1" stroke-linecap="butt" stroke-miterlimit="10" stroke-linejoin="miter" fill="none" stroke="#ffffff" d="M0 0C-3.435-5.967-14.223-5.967-17.658 0-21.097 5.963-11.164 15.27-8.829 15.286-5.807 15.314 3.447 5.963 0 0Z"/>
<path transform="matrix(1,0,0,-1,308.7299,57.5661)" d="M0 0C-32.442-5.691-47.579-67.067-4.916-47.083 6.662-41.596 9.748 1.705 0 0" fill="#ffffff" fill-rule="evenodd"/>
<path transform="matrix(1,0,0,-1,308.7299,57.5661)" stroke-width="1" stroke-linecap="butt" stroke-miterlimit="10" stroke-linejoin="miter" fill="none" stroke="#ffffff" d="M0 0C-32.442-5.691-47.579-67.067-4.916-47.083 6.662-41.596 9.748 1.705 0 0Z"/>
<path transform="matrix(1,0,0,-1,344.9364,50.952394)" d="M0 0C-4.246 6.176-22.751 6.176-27.401 0-33.823-8.532-17.75-26.367-13.697-26.519-10.241-26.647 6.052-8.805 0 0" fill="#ffffff"/>
<path transform="matrix(1,0,0,-1,344.9364,50.952394)" stroke-width="1" stroke-linecap="butt" stroke-miterlimit="10" stroke-linejoin="miter" fill="none" stroke="#ffffff" d="M0 0C-4.246 6.176-22.751 6.176-27.401 0-33.823-8.532-17.75-26.367-13.697-26.519-10.241-26.647 6.052-8.805 0 0Z"/>
<path transform="matrix(1,0,0,-1,314.3526,92.7209)" d="M0 0C0 1.372 8.283 2.488 18.5 2.488 28.718 2.488 37.005 1.372 37.005 0 37.005-1.381 28.718-2.496 18.5-2.496 8.283-2.496 0-1.381 0 0" fill="#ffffff"/>
<path transform="matrix(1,0,0,-1,314.3526,92.7209)" stroke-width="1" stroke-linecap="butt" stroke-miterlimit="10" stroke-linejoin="miter" fill="none" stroke="#ffffff" d="M0 0C0 1.372 8.283 2.488 18.5 2.488 28.718 2.488 37.005 1.372 37.005 0 37.005-1.381 28.718-2.496 18.5-2.496 8.283-2.496 0-1.381 0 0Z"/>
<path transform="matrix(1,0,0,-1,318.7228,83.238208)" d="M0 0C0 1.404 6.108 2.54 13.641 2.54 21.181 2.54 27.289 1.404 27.289 0 27.289-1.396 21.181-2.536 13.641-2.536 6.108-2.536 0-1.396 0 0" fill="#ffffff"/>
<path transform="matrix(1,0,0,-1,318.7228,83.238208)" stroke-width="1" stroke-linecap="butt" stroke-miterlimit="10" stroke-linejoin="miter" fill="none" stroke="#ffffff" d="M0 0C0 1.404 6.108 2.54 13.641 2.54 21.181 2.54 27.289 1.404 27.289 0 27.289-1.396 21.181-2.536 13.641-2.536 6.108-2.536 0-1.396 0 0Z"/>
<path transform="matrix(1,0,0,-1,316.0823,102.7059)" d="M0 0C0 1.328 7.605 2.412 16.983 2.412 26.366 2.412 33.971 1.328 33.971 0 33.971-1.329 26.366-2.412 16.983-2.412 7.605-2.412 0-1.329 0 0" fill="#ffffff"/>
<path transform="matrix(1,0,0,-1,316.0823,102.7059)" stroke-width="1" stroke-linecap="butt" stroke-miterlimit="10" stroke-linejoin="miter" fill="none" stroke="#ffffff" d="M0 0C0 1.328 7.605 2.412 16.983 2.412 26.366 2.412 33.971 1.328 33.971 0 33.971-1.329 26.366-2.412 16.983-2.412 7.605-2.412 0-1.329 0 0Z"/>
<path transform="matrix(1,0,0,-1,321.0025,112.2816)" d="M0 0C0 1.329 4.94 2.408 11.04 2.408 17.14 2.408 22.08 1.329 22.08 0 22.08-1.328 17.14-2.403 11.04-2.403 4.94-2.403 0-1.328 0 0" fill="#ffffff"/>
<path transform="matrix(1,0,0,-1,321.0025,112.2816)" stroke-width="1" stroke-linecap="butt" stroke-miterlimit="10" stroke-linejoin="miter" fill="none" stroke="#ffffff" d="M0 0C0 1.329 4.94 2.408 11.04 2.408 17.14 2.408 22.08 1.329 22.08 0 22.08-1.328 17.14-2.403 11.04-2.403 4.94-2.403 0-1.328 0 0Z"/>
<path transform="matrix(1,0,0,-1,326.1106,121.206897)" d="M0 0C0 .971 2.465 1.758 5.506 1.758 8.544 1.758 11.016 .971 11.016 0 11.016-.971 8.544-1.758 5.506-1.758 2.465-1.758 0-.971 0 0" fill="#ffffff"/>
<path transform="matrix(1,0,0,-1,326.1106,121.206897)" stroke-width="1" stroke-linecap="butt" stroke-miterlimit="10" stroke-linejoin="miter" fill="none" stroke="#ffffff" d="M0 0C0 .971 2.465 1.758 5.506 1.758 8.544 1.758 11.016 .971 11.016 0 11.016-.971 8.544-1.758 5.506-1.758 2.465-1.758 0-.971 0 0Z"/>
<path transform="matrix(1,0,0,-1,55.0273,189.8468)" d="M0 0-12.686 17.433H-21.262V-29.549H-11.413V-.205L-.75-14.95H.759L11.413-.205V-29.549H21.262V17.433H12.69Z" fill="#ffffff" fill-rule="evenodd"/>
<path transform="matrix(1,0,0,-1,55.0273,189.8468)" stroke-width="1" stroke-linecap="butt" stroke-miterlimit="10" stroke-linejoin="miter" fill="none" stroke="#ffffff" d="M0 0-12.686 17.433H-21.262V-29.549H-11.413V-.205L-.75-14.95H.759L11.413-.205V-29.549H21.262V17.433H12.69L0 0Z"/>
<path transform="matrix(1,0,0,-1,131.5538,183.6435)" d="M0 0-5.798-18.255H6.373ZM23.112-35.753H12.509L9.266-26.454H-8.407L-11.361-35.753H-21.787L-5.855 11.23H5.554Z" fill="#ffffff" fill-rule="evenodd"/>
<path transform="matrix(1,0,0,-1,131.5538,183.6435)" stroke-width="1" stroke-linecap="butt" stroke-miterlimit="10" stroke-linejoin="miter" fill="none" stroke="#ffffff" d="M0 0-5.798-18.255H6.373L0 0ZM23.112-35.753H12.509L9.266-26.454H-8.407L-11.361-35.753H-21.787L-5.855 11.23H5.554L23.112-35.753Z"/>
<path transform="matrix(1,0,0,-1,218.3138,210.7844)" d="M0 0H-20.274V38.37H-30.126V-8.612H0Z" fill="#ffffff" fill-rule="evenodd"/>
<path transform="matrix(1,0,0,-1,218.3138,210.7844)" stroke-width="1" stroke-linecap="butt" stroke-miterlimit="10" stroke-linejoin="miter" fill="none" stroke="#ffffff" d="M0 0H-20.274V38.37H-30.126V-8.612H0V0Z"/>
<path transform="matrix(1,0,0,-1,282.9095,210.7844)" d="M0 0H-20.279V38.37H-30.127V-8.612H0Z" fill="#ffffff" fill-rule="evenodd"/>
<path transform="matrix(1,0,0,-1,282.9095,210.7844)" stroke-width="1" stroke-linecap="butt" stroke-miterlimit="10" stroke-linejoin="miter" fill="none" stroke="#ffffff" d="M0 0H-20.279V38.37H-30.127V-8.612H0V0Z"/>
<path transform="matrix(1,0,0,-1,346.6342,210.7844)" d="M0 0H-19.295V11.298H-1.272V19.906H-19.295V29.762H-.405V38.37H-29.139V-8.612H0Z" fill="#ffffff" fill-rule="evenodd"/>
<path transform="matrix(1,0,0,-1,346.6342,210.7844)" stroke-width="1" stroke-linecap="butt" stroke-miterlimit="10" stroke-linejoin="miter" fill="none" stroke="#ffffff" d="M0 0H-19.295V11.298H-1.272V19.906H-19.295V29.762H-.405V38.37H-29.139V-8.612H0V0Z"/>
<path transform="matrix(1,0,0,-1,423.1484,172.414)" d="M0 0H-9.848V-28.726L-30.929 0H-39.974V-46.982H-30.122V-16.876L-8.283-46.982H0Z" fill="#ffffff" fill-rule="evenodd"/>
<path transform="matrix(1,0,0,-1,423.1484,172.414)" stroke-width="1" stroke-linecap="butt" stroke-miterlimit="10" stroke-linejoin="miter" fill="none" stroke="#ffffff" d="M0 0H-9.848V-28.726L-30.929 0H-39.974V-46.982H-30.122V-16.876L-8.283-46.982H0V0Z"/>
<path transform="matrix(1,0,0,-1,345.9482,165.2061)" d="M0 0V8.612H-28.73L-28.75-.012Z" fill="#ffffff" fill-rule="evenodd"/>
<path transform="matrix(1,0,0,-1,345.9482,165.2061)" stroke-width="1" stroke-linecap="butt" stroke-miterlimit="10" stroke-linejoin="miter" fill="none" stroke="#ffffff" d="M0 0V8.612H-28.73L-28.75-.012 0 0Z"/>
<path transform="matrix(1,0,0,-1,33.3771,231.32849)" d="M0 0H3.644V-23.987H9.61V-27.077H0Z" fill="#ffffff" fill-rule="evenodd"/>
<path transform="matrix(1,0,0,-1,33.3771,231.32849)" stroke-width="1" stroke-linecap="butt" stroke-miterlimit="10" stroke-linejoin="miter" fill="none" stroke="#ffffff" d="M0 0H3.644V-23.987H9.61V-27.077H0V0Z"/>
<path transform="matrix(1,0,0,-1,61.0534,250.3019)" d="M0 0-.806 4.315C-1.341 7.252-1.783 10.38-2.122 13.715-2.284 12.089-2.5 10.445-2.755 8.775-3.011 7.109-3.315 5.342-3.669 3.472L-4.332 0ZM-3.492 18.973H-.648L5.156-8.103H1.546L.525-2.819H-4.837L-5.874-8.103H-9.385Z" fill="#ffffff" fill-rule="evenodd"/>
<path transform="matrix(1,0,0,-1,61.0534,250.3019)" stroke-width="1" stroke-linecap="butt" stroke-miterlimit="10" stroke-linejoin="miter" fill="none" stroke="#ffffff" d="M0 0-.806 4.315C-1.341 7.252-1.783 10.38-2.122 13.715-2.284 12.089-2.5 10.445-2.755 8.775-3.011 7.109-3.315 5.342-3.669 3.472L-4.332 0H0ZM-3.492 18.973H-.648L5.156-8.103H1.546L.525-2.819H-4.837L-5.874-8.103H-9.385L-3.492 18.973Z"/>
<path transform="matrix(1,0,0,-1,78.7901,255.2814)" d="M0 0C1.493 0 2.529 .324 3.098 .962 3.673 1.605 4.154 2.775 4.164 4.453 4.164 6.186 3.658 7.39 3.064 8.087 2.479 8.79 1.453 9.133 0 9.133ZM.197 12.035C1.611 12.035 2.588 12.359 3.137 13.008 3.688 13.705 3.968 14.913 3.968 16.641 3.968 19.569 2.912 21.027 .81 21.027H.53 .373C.275 21.027 .211 21.021 .197 21.012ZM-3.438 23.953H1.503C5.377 23.953 7.312 21.552 7.312 16.749 7.312 14.913 7.062 13.553 6.56 12.665 6.054 11.776 5.165 11.103 3.894 10.646 5.357 10.061 6.354 9.31 6.889 8.402 7.439 7.502 7.714 6.147 7.719 4.335 7.719-.638 5.588-3.124 1.33-3.124H-3.438Z" fill="#ffffff" fill-rule="evenodd"/>
<path transform="matrix(1,0,0,-1,78.7901,255.2814)" stroke-width="1" stroke-linecap="butt" stroke-miterlimit="10" stroke-linejoin="miter" fill="none" stroke="#ffffff" d="M0 0C1.493 0 2.529 .324 3.098 .962 3.673 1.605 4.154 2.775 4.164 4.453 4.164 6.186 3.658 7.39 3.064 8.087 2.479 8.79 1.453 9.133 0 9.133V0ZM.197 12.035C1.611 12.035 2.588 12.359 3.137 13.008 3.688 13.705 3.968 14.913 3.968 16.641 3.968 19.569 2.912 21.027 .81 21.027H.53 .373C.275 21.027 .211 21.021 .197 21.012V12.035ZM-3.438 23.953H1.503C5.377 23.953 7.312 21.552 7.312 16.749 7.312 14.913 7.062 13.553 6.56 12.665 6.054 11.776 5.165 11.103 3.894 10.646 5.357 10.061 6.354 9.31 6.889 8.402 7.439 7.502 7.714 6.147 7.719 4.335 7.719-.638 5.588-3.124 1.33-3.124H-3.438V23.953Z"/>
<path transform="matrix(1,0,0,-1,106.7601,245.9175)" d="M0 0C0 4.69-.206 7.803-.633 9.331-1.046 10.872-1.91 11.648-3.202 11.648-4.507 11.648-5.372 10.941-5.799 9.521-6.227 8.093-6.433 5.23-6.433 .928-6.433-3.034-6.212-5.78-5.76-7.312-5.313-8.76-4.459-9.482-3.202-9.482-1.979-9.482-1.139-8.809-.682-7.454-.226-6.108 0-3.624 0 0M3.825 .388C3.825-4.395 3.29-7.793 2.23-9.801 1.164-11.81-.618-12.816-3.118-12.816-5.75-12.816-7.601-11.731-8.676-9.575-9.742-7.454-10.272-3.702-10.272 1.704-10.272 6.522-9.747 9.929-8.696 11.929-7.626 13.937-5.829 14.943-3.295 14.943-1.021 14.943 .658 14.162 1.758 12.61 2.48 11.564 3.005 10.091 3.334 8.171 3.659 6.399 3.825 3.806 3.825 .388" fill="#ffffff" fill-rule="evenodd"/>
<path transform="matrix(1,0,0,-1,106.7601,245.9175)" stroke-width="1" stroke-linecap="butt" stroke-miterlimit="10" stroke-linejoin="miter" fill="none" stroke="#ffffff" d="M0 0C0 4.69-.206 7.803-.633 9.331-1.046 10.872-1.91 11.648-3.202 11.648-4.507 11.648-5.372 10.941-5.799 9.521-6.227 8.093-6.433 5.23-6.433 .928-6.433-3.034-6.212-5.78-5.76-7.312-5.313-8.76-4.459-9.482-3.202-9.482-1.979-9.482-1.139-8.809-.682-7.454-.226-6.108 0-3.624 0 0ZM3.825 .388C3.825-4.395 3.29-7.793 2.23-9.801 1.164-11.81-.618-12.816-3.118-12.816-5.75-12.816-7.601-11.731-8.676-9.575-9.742-7.454-10.272-3.702-10.272 1.704-10.272 6.522-9.747 9.929-8.696 11.929-7.626 13.937-5.829 14.943-3.295 14.943-1.021 14.943 .658 14.162 1.758 12.61 2.48 11.564 3.005 10.091 3.334 8.171 3.659 6.399 3.825 3.806 3.825 .388Z"/>
<path transform="matrix(1,0,0,-1,124.8463,243.3199)" d="M0 0C1.419 0 2.416 .33 3.005 .982 3.59 1.635 3.875 2.74 3.879 4.297 3.879 5.137 3.816 5.853 3.687 6.453 3.57 7.052 3.373 7.534 3.108 7.911 2.853 8.28 2.509 8.554 2.092 8.731 1.68 8.908 1.193 8.992 .619 8.992H0ZM-3.644 11.991H1.159C3.152 11.991 4.63 11.521 5.598 10.578 6.825 9.344 7.439 7.469 7.439 4.949 7.439 3.005 7.11 1.439 6.457 .261 5.814-.908 4.891-1.635 3.687-1.916L8.662-15.085H4.964L0-1.827V-15.085H-3.644Z" fill="#ffffff" fill-rule="evenodd"/>
<path transform="matrix(1,0,0,-1,124.8463,243.3199)" stroke-width="1" stroke-linecap="butt" stroke-miterlimit="10" stroke-linejoin="miter" fill="none" stroke="#ffffff" d="M0 0C1.419 0 2.416 .33 3.005 .982 3.59 1.635 3.875 2.74 3.879 4.297 3.879 5.137 3.816 5.853 3.687 6.453 3.57 7.052 3.373 7.534 3.108 7.911 2.853 8.28 2.509 8.554 2.092 8.731 1.68 8.908 1.193 8.992 .619 8.992H0V0ZM-3.644 11.991H1.159C3.152 11.991 4.63 11.521 5.598 10.578 6.825 9.344 7.439 7.469 7.439 4.949 7.439 3.005 7.11 1.439 6.457 .261 5.814-.908 4.891-1.635 3.687-1.916L8.662-15.085H4.964L0-1.827V-15.085H-3.644V11.991Z"/>
<path transform="matrix(1,0,0,-1,150.6857,250.3019)" d="M0 0-.806 4.315C-1.345 7.252-1.782 10.38-2.122 13.715-2.284 12.089-2.49 10.445-2.75 8.775-3.01 7.109-3.31 5.342-3.664 3.472L-4.331 0ZM-3.492 18.973H-.643L5.161-8.103H1.542L.531-2.819H-4.837L-5.873-8.103H-9.374Z" fill="#ffffff" fill-rule="evenodd"/>
<path transform="matrix(1,0,0,-1,150.6857,250.3019)" stroke-width="1" stroke-linecap="butt" stroke-miterlimit="10" stroke-linejoin="miter" fill="none" stroke="#ffffff" d="M0 0-.806 4.315C-1.345 7.252-1.782 10.38-2.122 13.715-2.284 12.089-2.49 10.445-2.75 8.775-3.01 7.109-3.31 5.342-3.664 3.472L-4.331 0H0ZM-3.492 18.973H-.643L5.161-8.103H1.542L.531-2.819H-4.837L-5.873-8.103H-9.374L-3.492 18.973Z"/>
<path transform="matrix(1,0,0,-1,162.2552,231.32849)" d="M0 0H11.874V-3.191H7.788V-27.077H4.208V-3.191H0Z" fill="#ffffff" fill-rule="evenodd"/>
<path transform="matrix(1,0,0,-1,162.2552,231.32849)" stroke-width="1" stroke-linecap="butt" stroke-miterlimit="10" stroke-linejoin="miter" fill="none" stroke="#ffffff" d="M0 0H11.874V-3.191H7.788V-27.077H4.208V-3.191H0V0Z"/>
<path transform="matrix(1,0,0,-1,193.133,245.9175)" d="M0 0C0 4.69-.217 7.803-.629 9.331-1.056 10.872-1.91 11.648-3.212 11.648-4.503 11.648-5.372 10.941-5.81 9.521-6.222 8.093-6.438 5.23-6.438 .928-6.438-3.034-6.212-5.78-5.775-7.312-5.314-8.76-4.464-9.482-3.212-9.482-1.984-9.482-1.14-8.809-.688-7.454-.226-6.108 0-3.624 0 0M3.82 .388C3.82-4.395 3.295-7.793 2.229-9.801 1.159-11.81-.619-12.816-3.124-12.816-5.756-12.816-7.607-11.731-8.687-9.575-9.743-7.454-10.283-3.702-10.283 1.704-10.283 6.522-9.753 9.929-8.697 11.929-7.636 13.937-5.834 14.943-3.3 14.943-1.031 14.943 .648 14.162 1.752 12.61 2.475 11.564 3 10.091 3.329 8.171 3.658 6.399 3.82 3.806 3.82 .388" fill="#ffffff" fill-rule="evenodd"/>
<path transform="matrix(1,0,0,-1,193.133,245.9175)" stroke-width="1" stroke-linecap="butt" stroke-miterlimit="10" stroke-linejoin="miter" fill="none" stroke="#ffffff" d="M0 0C0 4.69-.217 7.803-.629 9.331-1.056 10.872-1.91 11.648-3.212 11.648-4.503 11.648-5.372 10.941-5.81 9.521-6.222 8.093-6.438 5.23-6.438 .928-6.438-3.034-6.212-5.78-5.775-7.312-5.314-8.76-4.464-9.482-3.212-9.482-1.984-9.482-1.14-8.809-.688-7.454-.226-6.108 0-3.624 0 0ZM3.82 .388C3.82-4.395 3.295-7.793 2.229-9.801 1.159-11.81-.619-12.816-3.124-12.816-5.756-12.816-7.607-11.731-8.687-9.575-9.743-7.454-10.283-3.702-10.283 1.704-10.283 6.522-9.753 9.929-8.697 11.929-7.636 13.937-5.834 14.943-3.3 14.943-1.031 14.943 .648 14.162 1.752 12.61 2.475 11.564 3 10.091 3.329 8.171 3.658 6.399 3.82 3.806 3.82 .388Z"/>
<path transform="matrix(1,0,0,-1,211.2184,243.3199)" d="M0 0C1.414 0 2.416 .33 3 .982 3.585 1.635 3.879 2.74 3.879 4.297 3.879 5.137 3.81 5.853 3.683 6.453 3.565 7.052 3.373 7.534 3.103 7.911 2.848 8.28 2.514 8.554 2.087 8.731 1.68 8.908 1.183 8.992 .614 8.992H0ZM-3.648 11.991H1.159C3.148 11.991 4.62 11.521 5.593 10.578 6.821 9.344 7.435 7.469 7.435 4.949 7.435 3.005 7.106 1.443 6.452 .261 5.809-.908 4.886-1.635 3.683-1.916L8.667-15.085H4.959L0-1.827V-15.085H-3.648Z" fill="#ffffff" fill-rule="evenodd"/>
<path transform="matrix(1,0,0,-1,211.2184,243.3199)" stroke-width="1" stroke-linecap="butt" stroke-miterlimit="10" stroke-linejoin="miter" fill="none" stroke="#ffffff" d="M0 0C1.414 0 2.416 .33 3 .982 3.585 1.635 3.879 2.74 3.879 4.297 3.879 5.137 3.81 5.853 3.683 6.453 3.565 7.052 3.373 7.534 3.103 7.911 2.848 8.28 2.514 8.554 2.087 8.731 1.68 8.908 1.183 8.992 .614 8.992H0V0ZM-3.648 11.991H1.159C3.148 11.991 4.62 11.521 5.593 10.578 6.821 9.344 7.435 7.469 7.435 4.949 7.435 3.005 7.106 1.443 6.452 .261 5.809-.908 4.886-1.635 3.683-1.916L8.667-15.085H4.959L0-1.827V-15.085H-3.648V11.991Z"/>
<path transform="matrix(1,0,0,-1,0,287)" d="M229.707 55.672H233.355V28.595002H229.707Z" fill="#ffffff" fill-rule="evenodd"/>
<path transform="matrix(1,0,0,-1,0,287)" stroke-width="1" stroke-linecap="butt" stroke-miterlimit="10" stroke-linejoin="miter" fill="none" stroke="#ffffff" d="M229.707 55.672H233.355V28.595002H229.707Z"/>
<path transform="matrix(1,0,0,-1,254.2595,245.9175)" d="M0 0C0 4.69-.206 7.803-.624 9.331-1.046 10.872-1.905 11.648-3.202 11.648-4.503 11.648-5.368 10.941-5.799 9.521-6.217 8.093-6.433 5.23-6.433 .928-6.433-3.034-6.207-5.78-5.761-7.312-5.313-8.76-4.459-9.482-3.202-9.482-1.974-9.482-1.13-8.809-.683-7.454-.216-6.108 0-3.624 0 0M3.83 .388C3.83-4.395 3.3-7.793 2.23-9.801 1.174-11.81-.614-12.816-3.118-12.816-5.746-12.816-7.601-11.731-8.672-9.575-9.733-7.454-10.273-3.702-10.273 1.704-10.273 6.522-9.748 9.929-8.692 11.929-7.626 13.937-5.829 14.943-3.29 14.943-1.022 14.943 .658 14.162 1.758 12.61 2.49 11.564 3.01 10.091 3.34 8.171 3.668 6.399 3.83 3.806 3.83 .388" fill="#ffffff" fill-rule="evenodd"/>
<path transform="matrix(1,0,0,-1,254.2595,245.9175)" stroke-width="1" stroke-linecap="butt" stroke-miterlimit="10" stroke-linejoin="miter" fill="none" stroke="#ffffff" d="M0 0C0 4.69-.206 7.803-.624 9.331-1.046 10.872-1.905 11.648-3.202 11.648-4.503 11.648-5.368 10.941-5.799 9.521-6.217 8.093-6.433 5.23-6.433 .928-6.433-3.034-6.207-5.78-5.761-7.312-5.313-8.76-4.459-9.482-3.202-9.482-1.974-9.482-1.13-8.809-.683-7.454-.216-6.108 0-3.624 0 0ZM3.83 .388C3.83-4.395 3.3-7.793 2.23-9.801 1.174-11.81-.614-12.816-3.118-12.816-5.746-12.816-7.601-11.731-8.672-9.575-9.733-7.454-10.273-3.702-10.273 1.704-10.273 6.522-9.748 9.929-8.692 11.929-7.626 13.937-5.829 14.943-3.29 14.943-1.022 14.943 .658 14.162 1.758 12.61 2.49 11.564 3.01 10.091 3.34 8.171 3.668 6.399 3.83 3.806 3.83 .388Z"/>
<path transform="matrix(1,0,0,-1,277.7372,231.8876)" d="M0 0V-3.56C-1.115-2.77-2.112-2.367-3.001-2.367-3.958-2.367-4.744-2.706-5.348-3.383-5.957-4.022-6.257-4.887-6.257-5.961-6.257-6.91-6.05-7.719-5.614-8.397-5.392-8.766-5.024-9.227-4.528-9.797-4.013-10.371-3.349-11.068-2.539-11.869-1.061-13.381-.05-14.688 .496-15.782 1.031-16.843 1.301-18.145 1.301-19.696 1.301-21.788 .707-23.508-.477-24.863-1.65-26.188-3.172-26.846-5.014-26.846-6.576-26.846-7.902-26.419-9.001-25.57V-21.955C-7.7-22.898-6.517-23.374-5.451-23.374-4.464-23.374-3.688-23.046-3.124-22.392-2.563-21.73-2.284-20.826-2.284-19.696-2.284-18.705-2.499-17.831-2.932-17.044-3.148-16.671-3.463-16.244-3.855-15.763-4.258-15.273-4.754-14.727-5.348-14.138-6.271-13.225-7.038-12.419-7.646-11.713-8.255-11.01-8.707-10.397-9.001-9.87-9.561-8.844-9.841-7.543-9.841-5.976-9.841-3.864-9.291-2.181-8.186-.947-7.081 .304-5.588 .932-3.723 .932-2.421 .932-1.184 .619 0 0" fill="#ffffff" fill-rule="evenodd"/>
<path transform="matrix(1,0,0,-1,277.7372,231.8876)" stroke-width="1" stroke-linecap="butt" stroke-miterlimit="10" stroke-linejoin="miter" fill="none" stroke="#ffffff" d="M0 0V-3.56C-1.115-2.77-2.112-2.367-3.001-2.367-3.958-2.367-4.744-2.706-5.348-3.383-5.957-4.022-6.257-4.887-6.257-5.961-6.257-6.91-6.05-7.719-5.614-8.397-5.392-8.766-5.024-9.227-4.528-9.797-4.013-10.371-3.349-11.068-2.539-11.869-1.061-13.381-.05-14.688 .496-15.782 1.031-16.843 1.301-18.145 1.301-19.696 1.301-21.788 .707-23.508-.477-24.863-1.65-26.188-3.172-26.846-5.014-26.846-6.576-26.846-7.902-26.419-9.001-25.57V-21.955C-7.7-22.898-6.517-23.374-5.451-23.374-4.464-23.374-3.688-23.046-3.124-22.392-2.563-21.73-2.284-20.826-2.284-19.696-2.284-18.705-2.499-17.831-2.932-17.044-3.148-16.671-3.463-16.244-3.855-15.763-4.258-15.273-4.754-14.727-5.348-14.138-6.271-13.225-7.038-12.419-7.646-11.713-8.255-11.01-8.707-10.397-9.001-9.87-9.561-8.844-9.841-7.543-9.841-5.976-9.841-3.864-9.291-2.181-8.186-.947-7.081 .304-5.588 .932-3.723 .932-2.421 .932-1.184 .619 0 0Z"/>
<path transform="matrix(1,0,0,-1,304.8289,231.32849)" d="M0 0H3.118L5.5-11.038C5.794-12.423 6.059-13.808 6.295-15.202 6.535-16.587 6.762-18.031 6.963-19.549 6.983-19.353 6.997-19.2 7.012-19.096 7.022-18.973 7.037-18.896 7.046-18.852L7.552-15.743 8.009-12.796 8.412-10.852 10.533 0H13.691L16.185-27.077H12.688L12.08-17.884C12.055-17.413 12.03-17.01 12.006-16.671 11.996-16.337 11.996-16.056 11.996-15.832L11.839-12.197 11.746-8.874C11.746-8.848 11.741-8.799 11.726-8.731 11.726-8.652 11.726-8.544 11.716-8.416L11.623-8.956C11.53-9.605 11.441-10.164 11.363-10.641 11.289-11.122 11.225-11.53 11.166-11.849L10.714-14.324 10.533-15.256 8.255-27.077H5.804L3.658-16.867C3.368-15.527 3.103-14.162 2.872-12.781 2.652-11.392 2.445-9.933 2.259-8.416L1.213-27.077H-2.224Z" fill="#ffffff" fill-rule="evenodd"/>
<path transform="matrix(1,0,0,-1,304.8289,231.32849)" stroke-width="1" stroke-linecap="butt" stroke-miterlimit="10" stroke-linejoin="miter" fill="none" stroke="#ffffff" d="M0 0H3.118L5.5-11.038C5.794-12.423 6.059-13.808 6.295-15.202 6.535-16.587 6.762-18.031 6.963-19.549 6.983-19.353 6.997-19.2 7.012-19.096 7.022-18.973 7.037-18.896 7.046-18.852L7.552-15.743 8.009-12.796 8.412-10.852 10.533 0H13.691L16.185-27.077H12.688L12.08-17.884C12.055-17.413 12.03-17.01 12.006-16.671 11.996-16.337 11.996-16.056 11.996-15.832L11.839-12.197 11.746-8.874C11.746-8.848 11.741-8.799 11.726-8.731 11.726-8.652 11.726-8.544 11.716-8.416L11.623-8.956C11.53-9.605 11.441-10.164 11.363-10.641 11.289-11.122 11.225-11.53 11.166-11.849L10.714-14.324 10.533-15.256 8.255-27.077H5.804L3.658-16.867C3.368-15.527 3.103-14.162 2.872-12.781 2.652-11.392 2.445-9.933 2.259-8.416L1.213-27.077H-2.224L0 0Z"/>
<path transform="matrix(1,0,0,-1,338.3823,250.3019)" d="M0 0-.805 4.315C-1.35 7.252-1.787 10.38-2.121 13.715-2.293 12.089-2.499 10.445-2.755 8.775-3.01 7.109-3.314 5.342-3.668 3.472L-4.336 0ZM-3.491 18.973H-.653L5.151-8.103H1.543L.525-2.819H-4.837L-5.873-8.103H-9.384Z" fill="#ffffff" fill-rule="evenodd"/>
<path transform="matrix(1,0,0,-1,338.3823,250.3019)" stroke-width="1" stroke-linecap="butt" stroke-miterlimit="10" stroke-linejoin="miter" fill="none" stroke="#ffffff" d="M0 0-.805 4.315C-1.35 7.252-1.787 10.38-2.121 13.715-2.293 12.089-2.499 10.445-2.755 8.775-3.01 7.109-3.314 5.342-3.668 3.472L-4.336 0H0ZM-3.491 18.973H-.653L5.151-8.103H1.543L.525-2.819H-4.837L-5.873-8.103H-9.384L-3.491 18.973Z"/>
<path transform="matrix(1,0,0,-1,352.677,231.32849)" d="M0 0H3.649V-23.987H9.615V-27.077H0Z" fill="#ffffff" fill-rule="evenodd"/>
<path transform="matrix(1,0,0,-1,352.677,231.32849)" stroke-width="1" stroke-linecap="butt" stroke-miterlimit="10" stroke-linejoin="miter" fill="none" stroke="#ffffff" d="M0 0H3.649V-23.987H9.615V-27.077H0V0Z"/>
<path transform="matrix(1,0,0,-1,371.5778,231.32849)" d="M0 0H3.644V-23.987H9.6V-27.077H0Z" fill="#ffffff" fill-rule="evenodd"/>
<path transform="matrix(1,0,0,-1,371.5778,231.32849)" stroke-width="1" stroke-linecap="butt" stroke-miterlimit="10" stroke-linejoin="miter" fill="none" stroke="#ffffff" d="M0 0H3.644V-23.987H9.6V-27.077H0V0Z"/>
<path transform="matrix(1,0,0,-1,390.4641,231.32849)" d="M0 0H9.698V-3.083H3.648V-11.662H9.016V-14.746H3.648V-23.987H9.698V-27.077H0Z" fill="#ffffff" fill-rule="evenodd"/>
<path transform="matrix(1,0,0,-1,390.4641,231.32849)" stroke-width="1" stroke-linecap="butt" stroke-miterlimit="10" stroke-linejoin="miter" fill="none" stroke="#ffffff" d="M0 0H9.698V-3.083H3.648V-11.662H9.016V-14.746H3.648V-23.987H9.698V-27.077H0V0Z"/>
<path transform="matrix(1,0,0,-1,397.2011,223.7124)" d="M0 0 1.91-2.106-2.47-5.18-3.776-3.687Z" fill="#ffffff" fill-rule="evenodd"/>
<path transform="matrix(1,0,0,-1,397.2011,223.7124)" stroke-width="1" stroke-linecap="butt" stroke-miterlimit="10" stroke-linejoin="miter" fill="none" stroke="#ffffff" d="M0 0 1.91-2.106-2.47-5.18-3.776-3.687 0 0Z"/>
<path transform="matrix(1,0,0,-1,410.5138,231.32849)" d="M0 0H3.408L7.032-10.798C8.088-13.847 9.016-17.107 9.817-20.57 9.527-18.473 9.32-16.587 9.174-14.883 9.031-13.189 8.967-11.594 8.967-10.095V0H12.635V-27.077H9.207L5.126-14.883C4.749-13.754 4.395-12.591 4.056-11.392 3.727-10.199 3.423-8.956 3.143-7.64 3.113-7.483 3.079-7.282 3.02-7.042 2.971-6.811 2.907-6.546 2.848-6.241 2.878-6.546 2.907-6.805 2.932-7.032 2.956-7.238 2.971-7.42 2.981-7.571L3.177-10.326 3.373-13.67C3.383-13.862 3.383-14.088 3.383-14.354 3.398-14.628 3.403-14.932 3.408-15.271L3.595-27.077H0Z" fill="#ffffff" fill-rule="evenodd"/>
<path transform="matrix(1,0,0,-1,410.5138,231.32849)" stroke-width="1" stroke-linecap="butt" stroke-miterlimit="10" stroke-linejoin="miter" fill="none" stroke="#ffffff" d="M0 0H3.408L7.032-10.798C8.088-13.847 9.016-17.107 9.817-20.57 9.527-18.473 9.32-16.587 9.174-14.883 9.031-13.189 8.967-11.594 8.967-10.095V0H12.635V-27.077H9.207L5.126-14.883C4.749-13.754 4.395-12.591 4.056-11.392 3.727-10.199 3.423-8.956 3.143-7.64 3.113-7.483 3.079-7.282 3.02-7.042 2.971-6.811 2.907-6.546 2.848-6.241 2.878-6.546 2.907-6.805 2.932-7.032 2.956-7.238 2.971-7.42 2.981-7.571L3.177-10.326 3.373-13.67C3.383-13.862 3.383-14.088 3.383-14.354 3.398-14.628 3.403-14.932 3.408-15.271L3.595-27.077H0V0Z"/>
<path transform="matrix(1,0,0,-1,354.8533,56.515)" d="M0 0C32.446-5.694 47.583-67.071 4.92-47.081-6.658-41.596-9.74 1.71 0 0" fill="#686158" fill-rule="evenodd"/>
<path transform="matrix(1,0,0,-1,339.226,37.9619)" d="M0 0C-3.435-5.967-14.223-5.967-17.658 0-21.097 5.963-11.164 15.27-8.829 15.286-5.807 15.314 3.447 5.963 0 0" fill="#686158"/>
<path transform="matrix(1,0,0,-1,308.7299,57.5661)" d="M0 0C-32.442-5.691-47.579-67.067-4.916-47.083 6.662-41.596 9.748 1.705 0 0" fill="#686158" fill-rule="evenodd"/>
<path transform="matrix(1,0,0,-1,344.9364,50.952394)" d="M0 0C-4.246 6.176-22.751 6.176-27.401 0-33.823-8.532-17.75-26.367-13.697-26.519-10.241-26.647 6.052-8.805 0 0" fill="#686158"/>
<path transform="matrix(1,0,0,-1,314.3526,92.7209)" d="M0 0C0 1.372 8.283 2.488 18.5 2.488 28.718 2.488 37.005 1.372 37.005 0 37.005-1.381 28.718-2.496 18.5-2.496 8.283-2.496 0-1.381 0 0" fill="#686158"/>
<path transform="matrix(1,0,0,-1,318.7228,83.238208)" d="M0 0C0 1.404 6.108 2.54 13.641 2.54 21.181 2.54 27.289 1.404 27.289 0 27.289-1.396 21.181-2.536 13.641-2.536 6.108-2.536 0-1.396 0 0" fill="#686158"/>
<path transform="matrix(1,0,0,-1,316.0823,102.7059)" d="M0 0C0 1.328 7.605 2.412 16.983 2.412 26.366 2.412 33.971 1.328 33.971 0 33.971-1.329 26.366-2.412 16.983-2.412 7.605-2.412 0-1.329 0 0" fill="#686158"/>
<path transform="matrix(1,0,0,-1,321.0025,112.2816)" d="M0 0C0 1.329 4.94 2.408 11.04 2.408 17.14 2.408 22.08 1.329 22.08 0 22.08-1.328 17.14-2.403 11.04-2.403 4.94-2.403 0-1.328 0 0" fill="#686158"/>
<path transform="matrix(1,0,0,-1,326.1106,121.206897)" d="M0 0C0 .971 2.465 1.758 5.506 1.758 8.544 1.758 11.016 .971 11.016 0 11.016-.971 8.544-1.758 5.506-1.758 2.465-1.758 0-.971 0 0" fill="#686158"/>
<path transform="matrix(1,0,0,-1,55.0273,189.8468)" d="M0 0-12.686 17.433H-21.262V-29.549H-11.413V-.205L-.75-14.95H.759L11.413-.205V-29.549H21.262V17.433H12.69Z" fill="#686158" fill-rule="evenodd"/>
<path transform="matrix(1,0,0,-1,131.5538,183.6435)" d="M0 0-5.798-18.255H6.373ZM23.112-35.753H12.509L9.266-26.454H-8.407L-11.361-35.753H-21.787L-5.855 11.23H5.554Z" fill="#686158" fill-rule="evenodd"/>
<path transform="matrix(1,0,0,-1,218.3138,210.7844)" d="M0 0H-20.274V38.37H-30.126V-8.612H0Z" fill="#686158" fill-rule="evenodd"/>
<path transform="matrix(1,0,0,-1,282.9095,210.7844)" d="M0 0H-20.279V38.37H-30.127V-8.612H0Z" fill="#686158" fill-rule="evenodd"/>
<path transform="matrix(1,0,0,-1,346.6342,210.7844)" d="M0 0H-19.295V11.298H-1.272V19.906H-19.295V29.762H-.405V38.37H-29.139V-8.612H0Z" fill="#f63440" fill-rule="evenodd"/>
<path transform="matrix(1,0,0,-1,423.1484,172.414)" d="M0 0H-9.848V-28.726L-30.929 0H-39.974V-46.982H-30.122V-16.876L-8.283-46.982H0Z" fill="#686158" fill-rule="evenodd"/>
<path transform="matrix(1,0,0,-1,345.9482,165.2061)" d="M0 0V8.612H-28.73L-28.75-.012Z" fill="#f63440" fill-rule="evenodd"/>
<path transform="matrix(1,0,0,-1,33.3771,231.32849)" d="M0 0H3.644V-23.987H9.61V-27.077H0Z" fill="#686158" fill-rule="evenodd"/>
<path transform="matrix(1,0,0,-1,61.0534,250.3019)" d="M0 0-.806 4.315C-1.341 7.252-1.783 10.38-2.122 13.715-2.284 12.089-2.5 10.445-2.755 8.775-3.011 7.109-3.315 5.342-3.669 3.472L-4.332 0ZM-3.492 18.973H-.648L5.156-8.103H1.546L.525-2.819H-4.837L-5.874-8.103H-9.385Z" fill="#686158" fill-rule="evenodd"/>
<path transform="matrix(1,0,0,-1,78.7901,255.2814)" d="M0 0C1.493 0 2.529 .324 3.098 .962 3.673 1.605 4.154 2.775 4.164 4.453 4.164 6.186 3.658 7.39 3.064 8.087 2.479 8.79 1.453 9.133 0 9.133ZM.197 12.035C1.611 12.035 2.588 12.359 3.137 13.008 3.688 13.705 3.968 14.913 3.968 16.641 3.968 19.569 2.912 21.027 .81 21.027H.53 .373C.275 21.027 .211 21.021 .197 21.012ZM-3.438 23.953H1.503C5.377 23.953 7.312 21.552 7.312 16.749 7.312 14.913 7.062 13.553 6.56 12.665 6.054 11.776 5.165 11.103 3.894 10.646 5.357 10.061 6.354 9.31 6.889 8.402 7.439 7.502 7.714 6.147 7.719 4.335 7.719-.638 5.588-3.124 1.33-3.124H-3.438Z" fill="#686158" fill-rule="evenodd"/>
<path transform="matrix(1,0,0,-1,106.7601,245.9175)" d="M0 0C0 4.69-.206 7.803-.633 9.331-1.046 10.872-1.91 11.648-3.202 11.648-4.507 11.648-5.372 10.941-5.799 9.521-6.227 8.093-6.433 5.23-6.433 .928-6.433-3.034-6.212-5.78-5.76-7.312-5.313-8.76-4.459-9.482-3.202-9.482-1.979-9.482-1.139-8.809-.682-7.454-.226-6.108 0-3.624 0 0M3.825 .388C3.825-4.395 3.29-7.793 2.23-9.801 1.164-11.81-.618-12.816-3.118-12.816-5.75-12.816-7.601-11.731-8.676-9.575-9.742-7.454-10.272-3.702-10.272 1.704-10.272 6.522-9.747 9.929-8.696 11.929-7.626 13.937-5.829 14.943-3.295 14.943-1.021 14.943 .658 14.162 1.758 12.61 2.48 11.564 3.005 10.091 3.334 8.171 3.659 6.399 3.825 3.806 3.825 .388" fill="#686158" fill-rule="evenodd"/>
<path transform="matrix(1,0,0,-1,124.8463,243.3199)" d="M0 0C1.419 0 2.416 .33 3.005 .982 3.59 1.635 3.875 2.74 3.879 4.297 3.879 5.137 3.816 5.853 3.687 6.453 3.57 7.052 3.373 7.534 3.108 7.911 2.853 8.28 2.509 8.554 2.092 8.731 1.68 8.908 1.193 8.992 .619 8.992H0ZM-3.644 11.991H1.159C3.152 11.991 4.63 11.521 5.598 10.578 6.825 9.344 7.439 7.469 7.439 4.949 7.439 3.005 7.11 1.439 6.457 .261 5.814-.908 4.891-1.635 3.687-1.916L8.662-15.085H4.964L0-1.827V-15.085H-3.644Z" fill="#686158" fill-rule="evenodd"/>
<path transform="matrix(1,0,0,-1,150.6857,250.3019)" d="M0 0-.806 4.315C-1.345 7.252-1.782 10.38-2.122 13.715-2.284 12.089-2.49 10.445-2.75 8.775-3.01 7.109-3.31 5.342-3.664 3.472L-4.331 0ZM-3.492 18.973H-.643L5.161-8.103H1.542L.531-2.819H-4.837L-5.873-8.103H-9.374Z" fill="#686158" fill-rule="evenodd"/>
<path transform="matrix(1,0,0,-1,162.2552,231.32849)" d="M0 0H11.874V-3.191H7.788V-27.077H4.208V-3.191H0Z" fill="#686158" fill-rule="evenodd"/>
<path transform="matrix(1,0,0,-1,193.133,245.9175)" d="M0 0C0 4.69-.217 7.803-.629 9.331-1.056 10.872-1.91 11.648-3.212 11.648-4.503 11.648-5.372 10.941-5.81 9.521-6.222 8.093-6.438 5.23-6.438 .928-6.438-3.034-6.212-5.78-5.775-7.312-5.314-8.76-4.464-9.482-3.212-9.482-1.984-9.482-1.14-8.809-.688-7.454-.226-6.108 0-3.624 0 0M3.82 .388C3.82-4.395 3.295-7.793 2.229-9.801 1.159-11.81-.619-12.816-3.124-12.816-5.756-12.816-7.607-11.731-8.687-9.575-9.743-7.454-10.283-3.702-10.283 1.704-10.283 6.522-9.753 9.929-8.697 11.929-7.636 13.937-5.834 14.943-3.3 14.943-1.031 14.943 .648 14.162 1.752 12.61 2.475 11.564 3 10.091 3.329 8.171 3.658 6.399 3.82 3.806 3.82 .388" fill="#686158" fill-rule="evenodd"/>
<path transform="matrix(1,0,0,-1,211.2184,243.3199)" d="M0 0C1.414 0 2.416 .33 3 .982 3.585 1.635 3.879 2.74 3.879 4.297 3.879 5.137 3.81 5.853 3.683 6.453 3.565 7.052 3.373 7.534 3.103 7.911 2.848 8.28 2.514 8.554 2.087 8.731 1.68 8.908 1.183 8.992 .614 8.992H0ZM-3.648 11.991H1.159C3.148 11.991 4.62 11.521 5.593 10.578 6.821 9.344 7.435 7.469 7.435 4.949 7.435 3.005 7.106 1.443 6.452 .261 5.809-.908 4.886-1.635 3.683-1.916L8.667-15.085H4.959L0-1.827V-15.085H-3.648Z" fill="#686158" fill-rule="evenodd"/>
<path transform="matrix(1,0,0,-1,0,287)" d="M229.707 55.672H233.355V28.595002H229.707Z" fill="#686158" fill-rule="evenodd"/>
<path transform="matrix(1,0,0,-1,254.2595,245.9175)" d="M0 0C0 4.69-.206 7.803-.624 9.331-1.046 10.872-1.905 11.648-3.202 11.648-4.503 11.648-5.368 10.941-5.799 9.521-6.217 8.093-6.433 5.23-6.433 .928-6.433-3.034-6.207-5.78-5.761-7.312-5.313-8.76-4.459-9.482-3.202-9.482-1.974-9.482-1.13-8.809-.683-7.454-.216-6.108 0-3.624 0 0M3.83 .388C3.83-4.395 3.3-7.793 2.23-9.801 1.174-11.81-.614-12.816-3.118-12.816-5.746-12.816-7.601-11.731-8.672-9.575-9.733-7.454-10.273-3.702-10.273 1.704-10.273 6.522-9.748 9.929-8.692 11.929-7.626 13.937-5.829 14.943-3.29 14.943-1.022 14.943 .658 14.162 1.758 12.61 2.49 11.564 3.01 10.091 3.34 8.171 3.668 6.399 3.83 3.806 3.83 .388" fill="#686158" fill-rule="evenodd"/>
<path transform="matrix(1,0,0,-1,277.7372,231.8876)" d="M0 0V-3.56C-1.115-2.77-2.112-2.367-3.001-2.367-3.958-2.367-4.744-2.706-5.348-3.383-5.957-4.022-6.257-4.887-6.257-5.961-6.257-6.91-6.05-7.719-5.614-8.397-5.392-8.766-5.024-9.227-4.528-9.797-4.013-10.371-3.349-11.068-2.539-11.869-1.061-13.381-.05-14.688 .496-15.782 1.031-16.843 1.301-18.145 1.301-19.696 1.301-21.788 .707-23.508-.477-24.863-1.65-26.188-3.172-26.846-5.014-26.846-6.576-26.846-7.902-26.419-9.001-25.57V-21.955C-7.7-22.898-6.517-23.374-5.451-23.374-4.464-23.374-3.688-23.046-3.124-22.392-2.563-21.73-2.284-20.826-2.284-19.696-2.284-18.705-2.499-17.831-2.932-17.044-3.148-16.671-3.463-16.244-3.855-15.763-4.258-15.273-4.754-14.727-5.348-14.138-6.271-13.225-7.038-12.419-7.646-11.713-8.255-11.01-8.707-10.397-9.001-9.87-9.561-8.844-9.841-7.543-9.841-5.976-9.841-3.864-9.291-2.181-8.186-.947-7.081 .304-5.588 .932-3.723 .932-2.421 .932-1.184 .619 0 0" fill="#686158" fill-rule="evenodd"/>
<path transform="matrix(1,0,0,-1,304.8289,231.32849)" d="M0 0H3.118L5.5-11.038C5.794-12.423 6.059-13.808 6.295-15.202 6.535-16.587 6.762-18.031 6.963-19.549 6.983-19.353 6.997-19.2 7.012-19.096 7.022-18.973 7.037-18.896 7.046-18.852L7.552-15.743 8.009-12.796 8.412-10.852 10.533 0H13.691L16.185-27.077H12.688L12.08-17.884C12.055-17.413 12.03-17.01 12.006-16.671 11.996-16.337 11.996-16.056 11.996-15.832L11.839-12.197 11.746-8.874C11.746-8.848 11.741-8.799 11.726-8.731 11.726-8.652 11.726-8.544 11.716-8.416L11.623-8.956C11.53-9.605 11.441-10.164 11.363-10.641 11.289-11.122 11.225-11.53 11.166-11.849L10.714-14.324 10.533-15.256 8.255-27.077H5.804L3.658-16.867C3.368-15.527 3.103-14.162 2.872-12.781 2.652-11.392 2.445-9.933 2.259-8.416L1.213-27.077H-2.224Z" fill="#686158" fill-rule="evenodd"/>
<path transform="matrix(1,0,0,-1,338.3823,250.3019)" d="M0 0-.805 4.315C-1.35 7.252-1.787 10.38-2.121 13.715-2.293 12.089-2.499 10.445-2.755 8.775-3.01 7.109-3.314 5.342-3.668 3.472L-4.336 0ZM-3.491 18.973H-.653L5.151-8.103H1.543L.525-2.819H-4.837L-5.873-8.103H-9.384Z" fill="#686158" fill-rule="evenodd"/>
<path transform="matrix(1,0,0,-1,352.677,231.32849)" d="M0 0H3.649V-23.987H9.615V-27.077H0Z" fill="#686158" fill-rule="evenodd"/>
<path transform="matrix(1,0,0,-1,371.5778,231.32849)" d="M0 0H3.644V-23.987H9.6V-27.077H0Z" fill="#686158" fill-rule="evenodd"/>
<path transform="matrix(1,0,0,-1,390.4641,231.32849)" d="M0 0H9.698V-3.083H3.648V-11.662H9.016V-14.746H3.648V-23.987H9.698V-27.077H0Z" fill="#686158" fill-rule="evenodd"/>
<path transform="matrix(1,0,0,-1,397.2011,223.7124)" d="M0 0 1.91-2.106-2.47-5.18-3.776-3.687Z" fill="#686158" fill-rule="evenodd"/>
<path transform="matrix(1,0,0,-1,410.5138,231.32849)" d="M0 0H3.408L7.032-10.798C8.088-13.847 9.016-17.107 9.817-20.57 9.527-18.473 9.32-16.587 9.174-14.883 9.031-13.189 8.967-11.594 8.967-10.095V0H12.635V-27.077H9.207L5.126-14.883C4.749-13.754 4.395-12.591 4.056-11.392 3.727-10.199 3.423-8.956 3.143-7.64 3.113-7.483 3.079-7.282 3.02-7.042 2.971-6.811 2.907-6.546 2.848-6.241 2.878-6.546 2.907-6.805 2.932-7.032 2.956-7.238 2.971-7.42 2.981-7.571L3.177-10.326 3.373-13.67C3.383-13.862 3.383-14.088 3.383-14.354 3.398-14.628 3.403-14.932 3.408-15.271L3.595-27.077H0Z" fill="#686158" fill-rule="evenodd"/>
</g>
</g>
</svg>
